<svg width="192" height="192" fill="none" xmlns="http://www.w3.org/2000/svg"><path fill="#E8EAED" d="M0 0h192v192H0z"/><path fill-rule="evenodd" clip-rule="evenodd" d="M82.5 112.875c-4.5 0-13.5 2.25-13.5 6.75V123h27v-3.375c0-4.5-9-6.75-13.5-6.75z" fill="#70757A"/><path d="M82.5 109.5a6.75 6.75 0 100-13.5 6.75 6.75 0 000 13.5zM123 96h-18v6.75h18V96zM123 109.5h-18v6.75h18v-6.75z" fill="#70757A"/><path fill-rule="evenodd" clip-rule="evenodd" d="M132 73.5h-22.5V60c0-4.95-4.05-9-9-9h-9c-4.95 0-9 4.05-9 9v13.5H60c-4.95 0-9 4.05-9 9V132c0 4.95 4.05 9 9 9h72c4.95 0 9-4.05 9-9V82.5c0-4.95-4.05-9-9-9zM91.5 60h9v22.5h-9V60zm40.5 72H60V82.5h22.5c0 4.95 4.05 9 9 9h9c4.95 0 9-4.05 9-9H132V132z" fill="#70757A"/></svg>