<svg xmlns="http://www.w3.org/2000/svg" width="200" height="64" viewBox="0 0 260 35"><g fill="#5F6368"><path d="M54.457 19.043V16.5h8.486c.087.448.137.981.137 1.559 0 1.907-.52 4.268-2.195 5.949-1.629 1.703-3.71 2.61-6.472 2.61C49.3 26.619 45 22.442 45 17.31 45 12.178 49.3 8 54.413 8c2.829 0 4.843 1.113 6.359 2.566l-1.788 1.794c-1.087-1.022-2.557-1.817-4.571-1.817-3.734 0-6.654 3.02-6.654 6.766 0 3.747 2.92 6.767 6.654 6.767 2.421 0 3.801-.977 4.684-1.862.719-.721 1.192-1.756 1.376-3.171h-6.016zM76.011 20.625c0 3.45-2.693 5.994-5.997 5.994s-5.996-2.543-5.996-5.994c0-3.474 2.693-5.995 5.996-5.995 3.304 0 5.997 2.52 5.997 5.995zm-2.625 0c0-2.158-1.561-3.633-3.372-3.633-1.81 0-3.372 1.475-3.372 3.633 0 2.134 1.562 3.632 3.372 3.632 1.81 0 3.372-1.498 3.372-3.633zM89.093 20.625c0 3.45-2.693 5.994-5.997 5.994S77.1 24.076 77.1 20.625c0-3.474 2.693-5.995 5.997-5.995s5.997 2.52 5.997 5.995zm-2.625 0c0-2.158-1.562-3.633-3.372-3.633-1.81 0-3.372 1.475-3.372 3.633 0 2.134 1.561 3.632 3.372 3.632 1.81 0 3.372-1.498 3.372-3.633zM101.632 14.993v10.763c0 4.428-2.603 6.244-5.68 6.244-2.897 0-4.64-1.953-5.295-3.542l2.285-.954c.408.977 1.403 2.135 3.01 2.135 1.969 0 3.19-1.226 3.19-3.52v-.862h-.09c-.588.726-1.72 1.362-3.146 1.362-2.987 0-5.725-2.611-5.725-5.971 0-3.384 2.738-6.017 5.725-6.017 1.426 0 2.558.635 3.146 1.34h.09v-.977h2.49zm-2.308 5.654c0-2.112-1.403-3.656-3.191-3.656-1.81 0-3.327 1.544-3.327 3.656 0 2.089 1.517 3.61 3.327 3.61 1.788 0 3.19-1.521 3.19-3.61zM106.078 8.695v17.56h-2.625V8.695h2.625zM116.215 22.6l2.036 1.362c-.656.976-2.24 2.657-4.978 2.657-3.395 0-5.93-2.634-5.93-5.995 0-3.565 2.558-5.994 5.636-5.994 3.1 0 4.616 2.475 5.114 3.815l.271.68-7.988 3.316c.611 1.204 1.562 1.817 2.897 1.817 1.335 0 2.263-.66 2.942-1.658zm-6.269-2.157l5.34-2.226c-.293-.749-1.176-1.271-2.217-1.271-1.335 0-3.19 1.18-3.123 3.497z"/><g><path d="M162.667 15.078l-2.996 7.617h-.09l-3.109-7.617h-2.817l4.663 10.644-2.659 5.922h2.728l7.185-16.566h-2.905zM141.604 8.751h-2.613v17.566h2.613V8.75zM131.804 8.751h-6.261v17.566h2.618v-6.648h3.65c2.895 0 5.744-2.103 5.744-5.455s-2.854-5.463-5.751-5.463zm.07 8.464h-3.713v-6.01h3.718c.796 0 1.559.318 2.122.882a3.015 3.015 0 010 4.258 2.997 2.997 0 01-2.122.882l-.005-.012zM148.025 14.693c-1.893 0-3.854.836-4.664 2.69l2.321.973c.497-.972 1.42-1.282 2.388-1.282 1.35 0 2.725.815 2.749 2.262v.179a5.76 5.76 0 00-2.715-.685c-2.5 0-5.047 1.378-5.047 3.955 0 2.35 2.045 3.863 4.346 3.863 1.76 0 2.728-.79 3.324-1.716h.092v1.354h2.524v-6.732c0-3.12-2.322-4.86-5.318-4.86zm-.315 9.628c-.856 0-2.046-.43-2.046-1.492 0-1.355 1.486-1.875 2.772-1.875a4.65 4.65 0 012.388.587 3.183 3.183 0 01-1.038 1.975 3.169 3.169 0 01-2.076.805z"/></g></g><path fill="#2F80ED" d="M179.081 26.511c-2.464 0-4.525-.829-6.184-2.487-1.643-1.659-2.464-3.728-2.464-6.207s.821-4.541 2.464-6.184c1.643-1.674 3.704-2.51 6.184-2.51 2.51 0 4.549.906 6.114 2.72l-1.534 1.487c-1.194-1.441-2.72-2.162-4.58-2.162-1.844 0-3.386.62-4.626 1.86-1.225 1.224-1.837 2.82-1.837 4.789s.613 3.564 1.837 4.789c1.24 1.24 2.782 1.86 4.626 1.86 1.937 0 3.619-.814 5.045-2.442l1.557 1.512a8.192 8.192 0 01-2.905 2.208 8.972 8.972 0 01-3.697.767zm7.625-6.067c0-1.752.55-3.2 1.65-4.348 1.117-1.147 2.52-1.72 4.208-1.72s3.085.573 4.185 1.72c1.116 1.147 1.674 2.596 1.674 4.348 0 1.766-.558 3.216-1.674 4.347-1.1 1.147-2.495 1.72-4.185 1.72s-3.091-.573-4.207-1.72c-1.1-1.147-1.65-2.596-1.65-4.347zm2.139 0c0 1.224.356 2.216 1.07 2.975.712.76 1.596 1.14 2.65 1.14 1.053 0 1.937-.38 2.65-1.14.713-.76 1.069-1.751 1.069-2.975 0-1.21-.356-2.193-1.07-2.953-.728-.775-1.611-1.162-2.65-1.162s-1.921.387-2.65 1.162c-.713.76-1.07 1.744-1.07 2.953zm11.293-5.696h2.046v1.58h.093c.326-.557.822-1.022 1.488-1.394a4.363 4.363 0 012.115-.558c1.395 0 2.465.403 3.209 1.209.76.79 1.139 1.922 1.139 3.394v7.16h-2.139v-7.02c-.047-1.86-.984-2.79-2.813-2.79-.852 0-1.565.349-2.139 1.046-.573.682-.86 1.503-.86 2.464v6.3h-2.139V14.748zm21.205 8.23c0 .991-.434 1.828-1.302 2.51s-1.96 1.023-3.278 1.023c-1.147 0-2.154-.294-3.022-.883a5 5 0 01-1.86-2.371l1.906-.814c.28.682.682 1.216 1.21 1.604a3.061 3.061 0 001.766.558c.682 0 1.248-.147 1.697-.442.465-.294.698-.643.698-1.046 0-.728-.558-1.263-1.674-1.604l-1.953-.488c-2.216-.558-3.324-1.627-3.324-3.208 0-1.039.418-1.868 1.255-2.488.852-.635 1.937-.953 3.255-.953 1.007 0 1.914.24 2.72.72.821.481 1.395 1.124 1.72 1.93l-1.906.79a2.33 2.33 0 00-1.07-1.115 3.18 3.18 0 00-1.627-.419c-.558 0-1.062.14-1.511.419-.434.279-.651.62-.651 1.023 0 .65.612 1.116 1.837 1.395l1.72.441c2.262.558 3.394 1.697 3.394 3.418zm1.324-2.534c0-1.752.55-3.2 1.65-4.348 1.116-1.147 2.52-1.72 4.208-1.72s3.085.573 4.185 1.72c1.116 1.147 1.674 2.596 1.674 4.348 0 1.766-.558 3.216-1.674 4.347-1.1 1.147-2.495 1.72-4.185 1.72s-3.092-.573-4.207-1.72c-1.1-1.147-1.651-2.596-1.651-4.347zm2.139 0c0 1.224.356 2.216 1.07 2.975.712.76 1.595 1.14 2.65 1.14s1.937-.38 2.65-1.14c.712-.76 1.069-1.751 1.069-2.975 0-1.21-.357-2.193-1.07-2.953-.728-.775-1.611-1.162-2.65-1.162s-1.921.387-2.65 1.162c-.713.76-1.07 1.744-1.07 2.953zm13.546-10.95V26.14h-2.139V9.494h2.139zm7.607 17.017c-1.674 0-3.054-.573-4.138-1.72-1.085-1.147-1.628-2.596-1.628-4.347 0-1.736.527-3.178 1.581-4.324 1.054-1.163 2.402-1.744 4.045-1.744 1.69 0 3.03.55 4.022 1.65 1.007 1.085 1.512 2.612 1.512 4.58l-.025.233h-8.95c.032 1.116.404 2.015 1.116 2.697a3.57 3.57 0 002.558 1.022c1.364 0 2.434-.681 3.209-2.045l1.905.93a5.656 5.656 0 01-2.138 2.255c-.9.542-1.922.813-3.07.813zm-3.418-7.439h6.532a2.784 2.784 0 00-.975-1.953c-.574-.527-1.35-.79-2.325-.79-.806 0-1.504.248-2.093.744-.573.496-.953 1.162-1.139 1.999zM4 29.453V4.548C4 1.82 6.987.115 9.378 1.48l21.83 12.452c2.39 1.364 2.39 4.772 0 6.135L9.378 32.52C6.988 33.884 4 32.18 4 29.453z"/><path fill="#CCF6FF" d="M25.857 10.88l-11.47 6.605-2.19-3.88a1.874 1.874 0 00-1.138-.888 1.9 1.9 0 00-1.439.17L4 16.007v3.826l5.976-3.319 2.2 3.9c.246.435.666.76 1.152.892a1.922 1.922 0 001.452-.187L29.224 12.8l-3.367-1.92z"/></svg>