<svg xmlns="http://www.w3.org/2000/svg" viewBox="0 0 800 800"><path fill="#fff" d="M0 0h800v800H0z"/><path fill="#fff" d="M0 0h800v800H0z"/><path fill="#fff" d="M0 0h800v800H0z"/><path fill="#fff" d="M0 0h800v800H0z"/><circle cx="697.555" cy="382.445" r="22.445" fill="#afbec6"/><circle cx="597.555" cy="382.445" r="22.445" fill="#afbec6"/><path fill="#eceff1" d="M310 300h200v100H310zM10 300h200v100H10z"/><path fill="#ced8dd" d="M410 200L10 300h400V200z"/><path fill="#afbec6" d="M10 400h200v200H10z"/><path fill="#eceff1" d="M210 400h200v200H210z"/><path d="M110 600H10V500a100 100 0 01100 100z" fill="#ced8dd"/><path fill="#4285f4" d="M360 600H260V500h100zM360 500a50 50 0 00-100 0z"/><path fill="#fbbc04" d="M410 400V300l100 100H410z"/><path d="M200 324.142V390h-65.858L200 324.142M210 300L110 400h100V300zM400 324.142V390h-65.858L400 324.142M410 300L310 400h100V300zM100 324.142V390H34.142L100 324.142M110 300L10 400h100V300z" fill="#fff"/><circle cx="600" cy="480" r="60" fill="#ced8dd"/><path fill="#ced8dd" d="M540 480h120v120H540z"/><path d="M670 480h120v120h-60a60 60 0 01-60-60v-60z" fill="#eceff1"/><path d="M670 420h60a60 60 0 0160 60v60H670V420z" fill="#eceff1"/></svg>